<svg xmlns="http://www.w3.org/2000/svg" viewBox="0 0 700 280" width="700" height="280" style="background:#0f0f0f">
  <style>
    text { font-family: 'Segoe UI', system-ui, -apple-system, sans-serif; }
    .label { fill: #ede9e3; font-size: 14px; }
    .label-sm { fill: #9a9590; font-size: 11px; }
    .label-bold { fill: #ede9e3; font-size: 15px; font-weight: 600; }
  </style>
  <path d="M40.85685705021024 39.74667069837451 L201.94128123596312 41.98654117509723 L197.9290631182492 98.60578100606799 L40.45494390800595 100.59738335534931 M41.75437002107501 38.79528731182218 C71.51307339295745 37.577329895645384, 105.41337756440043 40.632364890724425, 200.20913617536425 40.8123210079968 M40.3835667911917 39.15257761441171 C89.98987202383577 40.06999032758176, 140.5485030774027 40.31081332229078, 199.08358716405928 40.63599630557 M202.0004907362163 39.28832789734006 C200.5501413001865 55.82613496445119, 200.01667117021978 71.57782218903303, 201.4180735103786 99.02641948536038 M200.54807071127 40.72130371294916 C198.27399321138859 60.4343697167933, 200.09585274994373 80.95359988994896, 200.84586368240417 99.48581333123147 M199.5512554638088 101.05249351337552 C147.11022582277656 98.28485704794527, 92.76524034067988 100.01725257769228, 40.83817341253162 100.26879631355405 M200.8050097052008 100.2234797473997 C147.14520961381496 98.32730237148702, 95.67340428866446 99.29254324339331, 40.106886309757826 99.50905832014978 M40.47119057103991 97.64005466774105 C42.17834752984345 85.99534807689489, 42.317492451146244 72.6889845341444, 39.914430999010804 42.29875325039029 M40.4488784018904 100.60933765135705 C38.63811465039849 79.23543852716685, 38.850607581287626 57.08633150197566, 40.102165300026535 39.62119758091867 " fill="#1a1a1a" stroke="#fa520f" stroke-width="1.5"/><text x="120" y="75" class="label-bold" text-anchor="middle">Your Code</text><text x="120" y="95" class="label-sm" text-anchor="middle">(Node.js)</text><path d="M199.3364743798971 69.75479201376439 C216.4480152249336 71.47248498380185, 233.10268045961857 70.29861747205258, 279.57858320176604 70.18973244726658 M199.84553637057542 69.88614404648543 C224.93407792299985 69.93214020341635, 250.44580825716258 69.11237916558981, 279.6111312821507 70.1181206986308 " fill="none" stroke="#ffa110" stroke-width="1.5"/>
  <path d="M270.60145338609897 74.0029989394317 C272.3085647432916 72.74736052393898, 274.66606292269836 72.75925536475346, 280.09956755209714 70.22530728112906 M270.80596450002946 73.95897947828794 C272.9789919624341 72.90425985825357, 275.74440187711457 71.9122564145968, 279.938218397554 70.24026832962409 M280.26987733412534 70.24879556428641 C276.885596184088 69.1714481101291, 274.25049228637994 67.6906368483948, 271.1240743620702 65.65176320011219 M279.7925795740448 70.10861871624365 C276.6509312074171 68.36792131496472, 272.81196219946725 67.2998397992036, 270.9419809583024 66.32106992491012 " fill="none" stroke="#ffa110" stroke-width="1.5"/><text x="240" y="60" class="label-sm" text-anchor="middle">HTTP</text><path d="M280.22828651964664 38.81858986318112 L440.9512856155634 37.90794886052608 L441.7994464546442 100.27981213033199 L279.6113432556391 102.35029295384884 M281.81210878789426 41.90330044329166 C314.7019408434629 40.3726895648241, 344.2001560777426 40.49833453476429, 441.836014637351 39.062559571862224 M280.60249512940646 39.84239157885313 C317.50452522784474 37.26048181027174, 354.12270065099 38.34205706089735, 440.8003787830472 39.88423647135496 M440.97448280751706 39.25960165560245 C441.66229429215196 55.87894309014082, 441.0362083432078 68.77764548659324, 437.61233824193476 97.97927643358707 M440.27615812569854 40.828885595500466 C440.5929942631721 53.604454615712164, 440.4817200684547 67.61961561590434, 440.05849765092137 98.94010762423277 M442.0326667636633 102.0573487907648 C375.14842114150525 98.91438037693501, 313.5989258855581 99.60715791523457, 279.33359287679195 101.46175562441348 M439.0923702552915 99.80459317415952 C388.8121360972524 99.92857907265426, 337.44267617017033 100.51667592972518, 279.67601135522125 99.14412788599729 M278.645938000083 99.67320200502873 C278.2244149103761 83.99153537899255, 279.27445811182264 65.64098752737046, 277.6684308856726 38.42728230059147 M280.40664909631016 99.7585279867053 C280.06413539230823 82.76518571972846, 280.1754899817705 63.6027440264821, 281.128749974072 41.08999842852354 " fill="#1a1a1a" stroke="#ffa110" stroke-width="1.5"/><text x="360" y="75" class="label-bold" text-anchor="middle">Roku Device</text><text x="360" y="95" class="label-sm" text-anchor="middle">:8060</text><path d="M438.4486221194267 69.83832684755325 C456.71397867351766 65.68514878317714, 471.9781146660447 62.03533383697271, 518.4226344943047 44.7896745800972 M440.0580449163914 70.28615912795067 C469.30672079771756 59.87554818943143, 498.2611211821437 51.54971278935671, 520.3930876791477 45.33536013960838 " fill="none" stroke="#2e2e2e" stroke-width="1.5"/>
  <path d="M511.8731492296057 51.57939083530039 C513.5763321750228 50.133398954185935, 515.2165931867212 48.95097029233205, 520.0569309154525 45.11221980955452 M512.2278884620602 51.69688064400509 C514.5980903246073 49.785556558314056, 516.679721686371 47.93788906973055, 520.0308299805038 45.19398889737204 M520.1492539802566 44.63888096716255 C517.2869649690297 44.30353085477665, 514.0921874473056 44.6571824131963, 509.6155396719147 44.231178592116095 M520.0431038881652 45.16778562264517 C517.1669463498132 44.838299626670846, 513.7298946798683 44.286751522013446, 510.26560242526796 43.910345707711286 " fill="none" stroke="#2e2e2e" stroke-width="1.5"/><path d="M519.3025433838368 30.271681183576582 L670.7224124252796 29.57018067240715 L667.7912377655506 63.43818089365959 L518.2299178421497 66.1641584098339 M518.370224159956 31.090425235033035 C549.5103337183594 32.717977412045, 579.4529518216848 30.667942889034748, 668.2488647162915 28.948720103502275 M520.2151733070611 29.430705150961877 C559.994068069756 31.820973689854142, 600.1951948881149 30.994405563175675, 670.0737000137567 30.773364052176476 M669.3223342597485 30.397052317857742 C669.4413178522885 38.31204204335809, 669.2696696360409 45.228136505186555, 667.6958661735058 62.956061297655104 M671.0125389724969 30.268741402029992 C670.7688283191621 42.838846211880444, 670.4596801982821 55.159131075441834, 670.7392938286066 65.85240066945553 M671.0033689200878 66.62114155888557 C616.8152478680015 67.83473079651594, 562.7198697358369 66.13263328522443, 518.188784378767 63.01074746251106 M670.0466630607843 63.87260712087154 C619.6760636433959 63.60363060086965, 569.8982040941715 65.3613947495818, 519.215962472558 64.32451284825802 M521.400632828474 66.94726327061653 C517.5971404831112 56.32825204357505, 517.9078286926448 43.17636117786169, 519.5336740195751 31.978598910570145 M520.3442057281733 64.95470465123654 C519.8268403030931 55.53731805160642, 519.2697856880725 47.17147869318724, 520.470991101861 30.011477932333946 " fill="#0f0f0f" stroke="#2e2e2e" stroke-width="1.5"/><text x="595" y="52" class="label-sm" text-anchor="middle">Remote Control</text><path d="M438.4371418967843 69.2764996752143 C456.9872822811827 76.9027811625786, 472.6918306088075 85.61579836521298, 518.7728457942605 104.23933474868537 M440.2110065333545 69.89637155607343 C457.0204777013138 77.00141213877126, 474.71620021719485 85.25898959111422, 520.4447197549046 104.86728899553418 " fill="none" stroke="#2e2e2e" stroke-width="1.5"/>
  <path d="M509.93193421133105 105.0994206626552 C511.6295424346664 104.38752807102156, 514.4653024131558 105.20566721289934, 520.437714884989 104.93521330226213 M509.8044604765462 104.81476886213076 C512.5610523042892 105.14338027738778, 514.8327027143338 104.9247395607771, 519.7719528400339 104.93554127728567 M519.5391412479803 104.88718125689775 C518.0531495105853 102.75618423652004, 515.8221677779266 100.81305517287196, 513.5192709198448 97.54939824640898 M520.1500707590021 105.06560779130086 C518.0113742068622 102.71630502369268, 516.0776040008877 100.74862932789723, 513.1203463972772 97.56376938866599 " fill="none" stroke="#2e2e2e" stroke-width="1.5"/><path d="M518.7484442971647 88.95466843619943 L668.4000837825239 87.64426620975136 L668.3742109082639 126.5347528077662 L520.8527836821974 124.92112334743142 M519.0847354747355 88.46610095724463 C552.4873138723894 87.29174026306718, 582.7638035554439 90.31301246937365, 668.3384607411921 89.0384380839765 M520.1138368140906 89.0168529678136 C567.8893070181832 88.89181917663664, 615.1336260229349 88.82743074651808, 669.4803203951567 89.34579461105167 M669.0873077489435 87.83234925493598 C670.7290614355169 99.80124815059825, 672.4961837757193 110.4144364444539, 670.9586698867381 124.15410273298622 M668.8979760538787 90.20209677703679 C669.6165968731232 103.01920647928492, 671.3267630055733 114.03424594532699, 670.7014847051353 124.7682015825063 M670.4123936034739 126.05163328871132 C627.8581148641184 127.09211337957531, 590.6309212382882 125.19632168207318, 522.3346201516688 125.0493412040174 M669.15639927499 124.3494030404836 C618.1012976588681 125.00281294602901, 567.183379804343 124.3348837139085, 519.0371551644057 125.91694102771581 M519.720369014889 124.53271770700812 C518.9113373258151 111.12400916116312, 518.3169347026386 100.10563493538648, 519.2555937625468 89.56651189550757 M520.7923169266433 124.53036599643528 C520.815472529661 116.94472608631477, 521.1042160852068 110.07032160405069, 518.9198390971869 89.55306030996144 " fill="#0f0f0f" stroke="#2e2e2e" stroke-width="1.5"/><text x="595" y="112" class="label-sm" text-anchor="middle">Device State</text><path d="M440.3046881988645 70.40404738634825 C455.4328628831729 90.7972739221342, 470.39517101433125 107.86040819648653, 521.4830528095365 166.24216913431883 M440.16229650601747 70.61464196816087 C460.2247548880055 93.0389606016688, 479.50456025172025 116.89265998881311, 520.0677503548562 164.97737926617265 " fill="none" stroke="#2e2e2e" stroke-width="1.5"/>
  <path d="M511.45601647875975 160.08008518488316 C513.1462714912119 161.26831353298678, 515.0904057725876 162.18585565397777, 520.1556635475717 165.0351048358716 M511.3166747814301 160.41701338509267 C513.092197148477 161.50888267067614, 514.8276940777331 162.53848186174386, 520.1525306452531 164.80677701416425 M520.3090931749903 165.2366499551572 C519.5329950847871 162.10134067917554, 518.7163556871536 159.42682750988646, 516.6758390855875 155.02977792920433 M519.8235413182992 165.16297562303953 C519.0482102870368 161.71441005461696, 517.8548577982402 158.51447741849472, 516.8423878142976 155.5034614915669 " fill="none" stroke="#2e2e2e" stroke-width="1.5"/><path d="M522.2585042566061 147.85897063314914 L669.1714327424764 147.82991208136082 L668.0860793679952 183.73717249929905 L522.0537136644125 185.41229485571384 M519.7121321588754 150.33144107759 C550.8485048167407 149.98909489139913, 581.8960987880826 150.62777105793356, 670.5208366304636 148.90498910844326 M520.6085031792521 149.4569656804204 C567.0481949768961 151.95337329134344, 613.9105720162391 151.38266115412117, 670.5493253514171 148.88403825312852 M672.3371353060007 151.4583559602499 C669.309761616215 160.57838352136315, 667.8501275029033 165.76077375337482, 668.0897759348154 184.5741494745016 M670.1410356327891 149.13103036433458 C671.4277992487698 163.8499341789633, 670.1581480742245 176.58162638470532, 669.5358418747783 186.023137421906 M667.67753457129 186.07129074037076 C618.5441681332886 187.43218784704806, 561.2190933212638 184.3849326170981, 519.8242090135813 185.7932945817709 M670.5974862381815 185.4582032635808 C632.5125071652234 184.99140347316862, 595.3063656777143 186.0036472685635, 519.76107147187 186.0810186341405 M520.2045213609933 183.85061651170253 C520.9823859307915 172.89441057629884, 518.1927652452141 155.95037199929357, 518.6609522730112 149.62717052400112 M519.7883530423045 185.38970508128403 C519.9247248547524 177.51263845823706, 520.285545481965 169.79377038255333, 520.5776996895671 150.54171509295702 " fill="#0f0f0f" stroke="#2e2e2e" stroke-width="1.5"/><text x="595" y="172" class="label-sm" text-anchor="middle">SceneGraph Tree</text><path d="M440.72025142610073 69.25658930838108 C455.6064676795155 100.26906719546764, 473.29329443611203 131.6670292022079, 521.5144903749227 223.76488789618014 M440.6221826985478 69.78104160279035 C458.87690168373285 108.3452882455662, 478.07863846473396 146.20753021128476, 519.3808043435216 225.4064661309123 " fill="none" stroke="#2e2e2e" stroke-width="1.5"/>
  <path d="M512.2689118430137 218.81224070759492 C514.100510965308 219.74710416729883, 515.4891174675284 221.06692405583297, 520.3371154530905 224.9000361324288 M512.4062308134164 218.83626101645643 C514.2896194865875 219.90672915895624, 515.8468174109553 221.4517831597639, 519.846867691027 225.15031356434338 M519.7870109542273 224.8057715059258 C520.2095081768937 222.6801745309421, 519.4038191298231 221.2107316898985, 519.5129144945852 214.55137933091748 M520.1402219042648 225.15154076437466 C519.7445568484521 221.8572420437571, 519.6695846963697 219.0128078722949, 519.1716124440748 215.0600991423663 " fill="none" stroke="#2e2e2e" stroke-width="1.5"/><path d="M517.8934490330518 207.87827444002033 L669.7854942210018 209.19154198095202 L668.9229625351727 244.12453532144428 L519.6445014365017 244.72884137555957 M521.7867847673594 208.687505210191 C550.1018445083871 209.342990896292, 579.9293302442878 212.26924552638081, 668.0908925049007 210.67210406139492 M518.8222634021192 210.67668369971216 C564.7935412721708 209.07484215516598, 608.328412052989 209.78766641635448, 669.0789789501578 208.99290306530892 M672.2665915481746 209.4406219370663 C668.5460278150625 223.33413195842877, 671.4974049446173 238.16249381694942, 670.7973098509013 245.54381285980344 M668.9638390842825 209.476437401399 C668.9887037464046 218.21688690437003, 669.9358215399645 228.25946004930884, 669.8143599454313 245.56892591677607 M669.3443284742534 246.2797806866467 C632.5069164073095 243.4650687141344, 595.0504361946136 243.09802958201618, 520.0777071468532 247.20168575122952 M669.2119489613921 244.9883153554052 C620.1399107625708 244.02708721067756, 571.2476031698286 244.0227033725008, 520.4965705458075 246.15681667290627 M518.7728031627834 243.78147071674465 C519.7438825034909 232.73605183875188, 519.8049352311903 222.4108851885423, 520.5903607599437 209.70424324348568 M519.0356970373541 245.1316901203245 C519.1190188216605 236.81061017783358, 520.958942859117 228.74231305699794, 520.9732303801924 208.80368226729334 " fill="#0f0f0f" stroke="#2e2e2e" stroke-width="1.5"/><text x="595" y="232" class="label-sm" text-anchor="middle">App Lifecycle</text>
</svg>