<svg xmlns="http://www.w3.org/2000/svg" viewBox="0 0 700 340" width="700" height="340" style="background:#0f0f0f">
  <style>
    text { font-family: 'Segoe UI', system-ui, -apple-system, sans-serif; }
    .label { fill: #ede9e3; font-size: 14px; }
    .label-sm { fill: #9a9590; font-size: 11px; }
    .label-bold { fill: #ede9e3; font-size: 15px; font-weight: 600; }
  </style>
  <path d="M217.73333542868494 21.83447805121541 L481.69001021906735 17.683284599334 L480.23089445158837 64.90607262328267 L222.03159847781063 63.49012239649892 M218.18785605078708 21.321568343034613 C271.46509326149663 17.275907781219793, 324.7603234818848 19.48761906590259, 481.11679233001735 21.213727066956057 M220.08866246301938 20.3276388083828 C291.604081261188 19.753319085287018, 365.2918708034064 19.40273819665236, 479.6846910899757 20.83667941574543 M478.40598149970174 19.132972102612257 C478.9703590350039 34.9035113603808, 478.7542554573901 47.02683916185051, 478.3199510402977 63.35666621252894 M478.9655373003334 19.851024392619728 C478.6978658773564 31.51681581540033, 479.78722049972043 44.193938796408474, 480.96281259320676 64.92668668366969 M480.15196130109865 66.23567733260799 C377.6760103663909 62.78342476156591, 277.19222634790486 60.84288698722466, 221.67137863000846 65.30684433883229 M479.6830864962323 65.17807082828651 C382.78244232193106 66.03199632815418, 284.24438940793937 67.24794248722002, 220.15569346761148 65.91875747406314 M221.3410773344338 67.34401045367122 C222.31277020676063 56.41655836245045, 221.23819952709601 44.738916299305856, 218.75933306887745 21.366567783802747 M221.10146495364606 64.21477744914591 C219.30609822893513 52.032009246665986, 220.67010876560582 40.59682748522609, 220.39536423943937 19.8272019777447 " fill="#1a1a1a" stroke="#fa520f" stroke-width="1.5"/><text x="350" y="48" class="label-bold" text-anchor="middle">GET /query/app-ui</text><path d="M349.79188073277476 63.67485176920891 C348.3048037855327 72.50720289982856, 349.13807614728813 78.43073445037007, 351.4063462555408 100.9401012122631 M349.58632048070433 64.27592407763004 C350.300125335604 76.03446508906782, 349.6211127509177 88.44902721866966, 349.96852100789545 100.47757212221623 " fill="none" stroke="#ffa110" stroke-width="1.5"/>
  <path d="M346.33427168364125 90.545846916587 C346.86465952810573 92.81875742617774, 347.408266212049 94.71333296521843, 350.2526278598234 99.5994215356186 M346.1376129005146 90.62972661139527 C346.89459134142714 92.8189762031327, 347.8266645956734 95.05052183951643, 350.0560213350691 100.20586512004957 M350.06274868082255 99.94157198537141 C350.50214360059175 97.96890012776205, 351.6380231165095 95.53828695703476, 353.78354454664094 91.14018515482628 M350.2271308922209 99.83529839431867 C351.4923066913572 97.01341996251743, 352.6046599945405 93.59954911467914, 353.95221285353927 90.92802744390526 " fill="none" stroke="#ffa110" stroke-width="1.5"/><text x="410" y="85" class="label-sm" text-anchor="middle">40KB of XML</text><path d="M221.1130703613162 97.81941109448671 L479.992941968143 100.10174423009157 L480.8957307502627 144.41904593259096 L218.36621209830045 144.42419706135988 M218.730268777434 100.27915711663199 C274.2320983892525 96.96678131049514, 324.33553073372167 96.63154855684476, 481.17488598426985 98.53181068956758 M219.4927916443942 99.34490335312577 C311.01559646758653 99.33512272850913, 401.23807264596223 99.16947659722962, 479.45414458624987 99.97344446812512 M479.07159157544373 102.39693824499845 C478.3944954164699 114.31609342042357, 477.39670922834426 134.69512866176666, 478.6811138704419 143.44764010161163 M480.43323496207597 99.08485436812043 C479.0752161550149 111.09641706328838, 479.8679694938287 123.80910662002861, 480.28544517382977 145.3239859379828 M478.42548871661074 143.6556219175401 C385.05456694574787 144.425541306654, 292.3869416995279 143.25950646124946, 218.4726028411895 144.71814385896323 M480.64458927141993 145.7711303106719 C414.5288474391573 144.3473996880337, 349.1785875988945 144.0155191669379, 219.42196299351545 144.7497671843474 M221.57149935513735 143.64537183493377 C221.03853087168187 135.2618026232347, 219.74672307711097 125.37160957120359, 221.92083183079959 98.87330452650785 M220.4394051872194 144.3277922667563 C220.31198092911393 128.60505275893956, 220.69092964146287 110.63309831582009, 219.9642640195787 100.5884890832007 " fill="#1a1a1a" stroke="#ffa110" stroke-width="1.5"/><text x="350" y="128" class="label-bold" text-anchor="middle">parseUiXml()</text><path d="M349.8519830748439 145.67500578910114 C350.525618683584 151.5297850064002, 349.9585546367243 158.71256257575004, 351.07876944988965 179.68011562377214 M350.29140378013255 145.75187077745795 C350.58115403410045 152.56027523288503, 349.9369299387559 160.82800814900548, 349.5099766112864 180.4810034058988 " fill="none" stroke="#ffa110" stroke-width="1.5"/>
  <path d="M346.4839723415715 170.74630586648442 C347.1583476736855 172.35753813327813, 348.0649390168777 174.0646816639889, 349.7161311027594 180.3644612985663 M346.075842188722 170.89569766921073 C347.32038592849835 173.15874786712652, 348.3988491172743 175.99316096594046, 349.86978057562374 180.1781659333501 M349.7707145330496 180.16122483788058 C352.0300612016645 176.67722099636055, 353.0843878512119 172.72093231934397, 354.1971295999321 170.3042925729797 M349.87034091888927 180.22649570391513 C351.25983677333153 177.6180191221298, 352.16879390554584 174.7489024971425, 353.7924738763324 170.66785869103938 " fill="none" stroke="#ffa110" stroke-width="1.5"/><path d="M218.78195644691587 179.01964907571673 L480.68053392246367 178.85297124311327 L479.7748763211072 225.25489616319538 L221.69269360378385 222.6129482500255 M218.16030468742798 179.9732404357927 C271.28425585028697 177.0541959406072, 325.46095462786917 179.855345483341, 478.1174269283588 179.89296760623046 M220.455754741646 179.39218839420977 C323.70283908614743 181.94705673145424, 426.2428395303552 181.19529181735777, 479.8086028053202 179.71335641322403 M481.123249386996 179.5711596854031 C481.8636507102661 195.4920874035917, 480.94489691941067 208.33727125581353, 479.5795124284923 226.8444357521832 M480.3487834040076 180.12369484864175 C479.7561558034457 197.84785538138823, 478.9249235298671 216.95639053266495, 479.95878531374035 225.12587956152856 M481.5277907669832 225.08253224607662 C410.296636817088 222.19522992026336, 345.4853070589668 225.3989929664304, 220.63781888399126 225.34388674243908 M480.19716627915034 225.37795206616815 C399.2104317313622 224.09654951704712, 319.7331792314737 223.97673345199087, 220.66444024431232 225.9581611994906 M220.74561395570635 226.1312559016049 C221.54920489074664 209.8499193825759, 220.85760716678575 193.5876143882051, 217.74115769788622 180.2232346661389 M218.85297015346586 224.722277950868 C220.29100544860586 212.93360086781905, 218.7258704345487 198.85027008298783, 219.31985759176314 180.84581199847162 " fill="#1a1a1a" stroke="#ffa110" stroke-width="1.5"/><text x="350" y="208" class="label-bold" text-anchor="middle">UiNode Tree</text><path d="M349.47864067764687 225.6606802788279 C305.7425206584962 235.89973918223777, 260.08500361636317 244.5426030654725, 129.9656373151979 275.986047107549 M349.6384905215368 224.81981998732738 C269.31103197687236 242.95731999445152, 188.68413426754074 261.29186279314706, 130.25997986009497 275.18103303192873 " fill="none" stroke="#2e2e2e" stroke-width="1.5"/>
  <path d="M138.49922331331072 269.35988358785653 C136.02915464793273 270.4699484686561, 134.44472855271778 271.7342703237291, 130.05064331600443 274.60350684961304 M137.96658393113648 269.3242666551869 C135.67383466966368 270.61296507699853, 133.49951202103134 272.49483700793127, 130.18192055891268 274.9872992739547 M130.04150365898386 275.4231228097342 C132.2070023917018 275.6735020284437, 134.88054822513527 275.5741252867335, 139.34905061815275 277.0145295330803 M130.12157282303087 274.9417405233253 C131.8926290932778 275.4185979329829, 134.3742582838254 275.57055478879954, 139.7873058259987 276.5316674645073 " fill="none" stroke="#2e2e2e" stroke-width="1.5"/><path d="M39.18338907361031 273.9739722430706 L224.01414526104926 274.0058961093426 L224.21109407544137 316.92211562991145 L38.44357145428658 314.23766986727713 M41.159388083219525 276.6221650898457 C78.88289394304157 276.3610421453416, 115.08151576966047 276.8698928152025, 225.7085166156292 275.8055530369282 M40.72759703695774 275.2365709871054 C96.20851142182946 277.31944920018316, 150.69918227642773 276.1385971684754, 225.40997399389744 274.4546594232321 M224.01676399111747 275.6146152317524 C224.10153845071792 281.6674211025238, 225.47967203378678 291.23700553774836, 223.86620380282403 315.123766118288 M225.12077950537204 275.5475038141012 C224.5519143551588 283.5349708467722, 223.67884945571424 293.0097028940916, 225.9800027757883 314.3139900773764 M227.0791875064373 316.26012323498725 C158.7437067873776 312.8268923605978, 88.90795141011476 313.6113167609274, 37.78811828494072 316.457732373476 M225.17086199820042 313.87951513230803 C182.8545761667192 315.4363384477794, 142.37636711746455 316.15178158208727, 39.772654238343236 315.9927390664816 M38.288650816679 314.46357191205027 C42.52898637294769 304.3875345349312, 39.98525716304779 293.80991634726524, 41.1850022494793 274.64358461499216 M40.03966092169285 314.2723510354757 C40.060185503363606 305.01916649639605, 39.4280324691534 296.5718016594648, 39.31536978781223 275.21502748429776 " fill="#0f0f0f" stroke="#2e2e2e" stroke-width="1.5"/><text x="132" y="300" class="label-sm" text-anchor="middle">findElement(tree, 'Button#play')</text><path d="M348.4783356368542 225.53952658772468 C356.4710113659501 234.1203238274157, 365.2727693483233 246.39162545233964, 391.28091112971305 275.4611423790455 M350.226850143075 224.8832563728094 C363.23069605380294 241.80895259425043, 376.19222718924283 258.2364313986897, 389.78886348307134 275.22919133603574 " fill="none" stroke="#2e2e2e" stroke-width="1.5"/>
  <path d="M380.8609408082251 270.17121025151044 C383.1893318147174 271.21888211303144, 384.54587749825185 272.2095463054986, 390.07736507384107 275.48947938205674 M381.10894790341115 270.2217019768379 C383.2030437136249 271.3655538541241, 385.40597207866244 272.2261895616701, 390.1254192015622 275.1102786080446 M389.5064738127403 274.99741478683427 C389.62386358871566 273.14796939317563, 389.20175962464305 271.57610841911014, 387.3374489700457 265.4407604685845 M389.9794178029988 274.9767685548868 C389.23635387920814 271.8534423713729, 388.0757146261401 268.50943064646856, 387.3142504462542 265.62481852875555 " fill="none" stroke="#2e2e2e" stroke-width="1.5"/><path d="M302.3218049839139 275.6483785077929 L486.8789496734738 272.9796882554889 L484.1317807033658 313.98633217066526 L300.4402101829648 314.78574189394715 M297.6303888246417 275.4989542797208 C335.7966899646446 273.90072881694886, 374.798139725253 274.3799972247705, 484.2141465589404 275.4685466125608 M300.9362780727446 275.67884945496917 C351.66303915772585 275.60637647349387, 404.01286313943564 276.0488776608184, 483.9456797994673 273.9096000872552 M485.84946951121094 273.34277566224335 C485.9424370294809 286.44442304372785, 487.4094813352823 298.7594813749194, 482.6180340692401 314.32255628854034 M484.41478284969924 273.9829378329217 C484.363342936486 289.9747166790068, 485.49327255055306 304.9314575307071, 485.532965246588 316.165418048948 M483.9060059472919 316.4130817249417 C429.19223277140406 318.4093887120858, 377.7830418098718 315.84116871658716, 299.5870628759265 316.51208384782075 M486.0565055526793 315.97953338250517 C422.4520586227998 313.3431759668514, 358.76486404277387 312.13415280114856, 300.2153289712966 314.7447734557092 M298.4077618047595 313.6700775459409 C298.799167188406 307.04975912868974, 299.0259557569027 296.36248056739566, 297.9336841508746 275.86764686852695 M300.92514247074723 315.75220543965696 C300.01451211914423 298.9708240754902, 300.3402287815511 283.60318401381375, 299.4666235126555 275.58357939347627 " fill="#0f0f0f" stroke="#2e2e2e" stroke-width="1.5"/><text x="392" y="300" class="label-sm" text-anchor="middle">findFocused(tree)</text><path d="M350.5806342529101 225.75088494949998 C398.80073098514464 235.1688603442942, 445.9037333260336 246.70668399086756, 589.4834098734864 275.3587471422433 M349.8373949692634 224.52083233726972 C411.85004684114074 239.1232642134853, 472.7828124498548 251.80934554932526, 590.4808970945538 275.0231024787517 " fill="none" stroke="#2e2e2e" stroke-width="1.5"/>
  <path d="M580.5586833974245 276.60556859758884 C581.7844318834004 276.2940543727318, 584.28617701436 276.2099700118313, 590.378966409713 275.08756325766444 M580.1802082398805 276.73123879035205 C582.5029539566802 276.4439604007612, 585.062798616843 276.0690244585645, 590.2303256299347 275.04848257638514 M590.3906498737633 275.06005642935634 C588.1887616964774 273.6381186605384, 586.6745154737791 272.04938179459845, 581.6752904400619 269.65750444922526 M589.803837230429 275.02695004083216 C586.6045106065599 272.82104188896153, 583.3113817817151 270.6134280221839, 581.6561741892638 269.3969621738412 " fill="none" stroke="#2e2e2e" stroke-width="1.5"/><path d="M500.3809529796243 275.1812794432044 L685.1400029197335 274.68093845695256 L686.7802555575967 315.31602074950933 L500.2375995650888 316.96860639899967 M497.6384925112128 273.072008754313 C538.3558072885498 272.27158983480183, 575.6509769853204 275.1186631513759, 683.6845856413245 273.03349237591027 M500.5459522254765 274.25987597629427 C551.5998495997861 274.6960768664256, 603.4296266432851 275.25657837037, 685.744527745992 274.09882677718997 M683.5159947142005 275.78084917217495 C683.0577535706759 286.72293585538864, 682.9960096913576 297.30867640823124, 684.8628431543708 313.50190463215114 M685.2187249429523 275.4717212550342 C684.609567719549 290.98130779340863, 684.9208118973672 306.77984620556236, 684.0750893123447 315.8361961953342 M682.654274199903 316.4699035182595 C616.8701615104452 313.70255903530864, 546.3118529591709 313.0094803743437, 498.19694630950687 313.3953062072396 M685.0582403667271 315.92074228450656 C611.8926075888797 312.78135622467846, 540.5421611208469 314.9299268814549, 500.912750030309 315.1567130438983 M497.98316495269535 313.9554315581918 C501.61494510531423 302.68969489634037, 500.62221062541005 293.95247538536785, 499.3026665911078 276.4190193668008 M501.1718471296132 315.63279355689883 C500.46638201758265 299.389710495621, 498.7989564566314 285.4173664174974, 500.28438978269696 274.7792005650699 " fill="#0f0f0f" stroke="#2e2e2e" stroke-width="1.5"/><text x="592" y="300" class="label-sm" text-anchor="middle">findElements(tree, 'Label')</text>
</svg>