<svg xmlns="http://www.w3.org/2000/svg" viewBox="0 0 700 200" width="700" height="200" style="background:#0f0f0f">
  <style>
    text { font-family: 'Segoe UI', system-ui, -apple-system, sans-serif; }
    .label { fill: #ede9e3; font-size: 14px; }
    .label-sm { fill: #9a9590; font-size: 11px; }
    .label-bold { fill: #ede9e3; font-size: 15px; font-weight: 600; }
  </style>
  <path d="M19.696528866142035 30.744897542148827 L250.14925706610083 29.98783775344491 L248.516196539253 70.92314628139138 L17.994149043411017 71.16847449317575 M18.643151977446564 31.59732732306873 C66.23136567131776 31.943128069133394, 113.17459835347785 33.91264517106616, 251.24471810867905 29.748512047079913 M19.32434115664261 29.640836295527222 C66.56902052527033 29.504163095651634, 113.24218112161644 31.255256992627984, 251.0148198057614 29.53585190820921 M250.49675072208046 27.854105546325446 C249.38326751917603 38.967641812562945, 248.90536803931 49.6570348598063, 251.55570364966988 69.3708732150495 M250.72880010716617 30.709973018243907 C249.3748785392195 42.50663853995502, 249.58865299381316 57.71494232155383, 249.5255555998534 68.89436052329839 M247.99404994352867 68.00727207192956 C163.98937683428605 69.23287300609755, 78.25738054389868 70.28076743989372, 20.726344874336966 69.11096511965596 M249.08952842884676 70.87554886256791 C165.57716377053882 67.3133480118036, 81.06329429575973 68.0849836431168, 19.228927905106364 70.10519538919795 M20.8491708137095 68.32434857115149 C19.68248218357563 54.05977947562933, 19.762637818455698 40.46867458298802, 17.980726585537194 31.253010465949774 M19.56186244599521 69.46213063485921 C19.99346370048821 58.067722007259725, 20.514697414115073 48.55997605361044, 19.044276965782046 29.09341526515782 " fill="#1a1a1a" stroke="#58a6ff" stroke-width="1.5"/><text x="135" y="55" class="label-sm" text-anchor="middle">homeScreen.isDisplayed()</text><path d="M250.70944651067256 49.29251667559147 C267.87292707920074 58.54736281100661, 286.66767164863643 67.78855762265623, 339.0205715984106 93.81162687838078 M249.54261716157197 50.07300624102354 C272.3181841012835 61.27600053098053, 295.9668191903084 72.52987280018628, 340.1823404148221 95.154163877666 " fill="none" stroke="#ffa110" stroke-width="1.5"/>
  <path d="M329.53122199600097 94.5774648199987 C332.43780517008804 94.8025188784484, 333.5764293940869 94.63717147101212, 340.28288625739515 95.20253072120249 M330.24168200226035 94.19242696661617 C333.97347681759476 94.39005745558916, 337.5583493738236 94.7865152043199, 339.9359399275854 94.75624447595328 M340.3400862123817 95.30155787803233 C337.05562739313655 92.6352641629105, 335.5761648103754 89.55063099971197, 333.5431574302334 87.78652735359526 M339.8386715846136 95.01606088411063 C337.86733891284547 92.72570728676021, 336.08532702837243 90.7311924302881, 333.27910479983126 87.20200521152026 " fill="none" stroke="#ffa110" stroke-width="1.5"/><path d="M21.726746603101493 89.78527831211686 L248.3694041930139 89.90980097427965 L249.60282945260406 129.38050665035843 L20.436519452184438 129.23047639504074 M20.93809084207947 90.26129401800328 C64.54542928026248 91.60634215347268, 114.39495603614112 89.93206438157465, 250.12685625816496 89.6145818802877 M19.329447818769957 89.31323584463635 C84.85271447928258 90.17432950802846, 150.40500010075942 90.52102869395574, 250.80143192047873 90.72564142866328 M251.85940322056413 90.0528598509729 C248.17373723000287 99.55264552235603, 251.66228958576917 113.2112896837294, 252.03314134255052 130.96574625596404 M250.59367761425673 89.01211778707803 C249.23911897160113 101.4146569352597, 250.6945164463669 114.00203075446188, 249.00289982371032 130.9773903209716 M248.37217423397715 131.24900831083613 C171.94468497790731 128.46674250670506, 94.53235640525574 130.4155772884722, 21.143353872123786 128.54279328724104 M250.3688318608239 129.3911698302733 C181.71654430050262 129.54285589365162, 111.69561873312797 128.63507569813206, 19.301226452454234 129.7115664183972 M17.607754174619913 132.3017630778253 C17.690513194203376 118.36297613233327, 18.731004942059517 111.37870197370648, 18.973247972875832 87.65289868935943 M18.943566391989588 130.09330772943795 C19.593579951599242 114.9393223579973, 20.364279702976347 99.19929763413965, 20.893226681277156 90.9451319295913 " fill="#1a1a1a" stroke="#58a6ff" stroke-width="1.5"/><text x="135" y="115" class="label-sm" text-anchor="middle">homeScreen.isFocused()</text><path d="M250.7661723166704 111.50389799773693 C267.6975926151872 107.00049034651369, 285.66026322863996 103.11031357325614, 340.11364517509935 95.9662472218275 M250.01033623069526 109.74019189029931 C268.2025494265556 107.27143122766168, 286.51377570398154 104.8736959093064, 340.77427604049444 95.6787507072091 " fill="none" stroke="#ffa110" stroke-width="1.5"/>
  <path d="M331.4909280280187 99.87529645934943 C333.5351226113235 99.1018391485398, 335.3906794675075 98.36129707814806, 339.9955299603753 95.22671727510169 M331.4998116036947 100.19437791598271 C334.01471044389604 99.10765258129214, 336.0264982268428 97.46342822484661, 340.1618878080044 94.98638018011115 M339.8914870726876 94.97248570295051 C336.7158833746414 94.23326744831729, 333.2762140226244 93.19422196789337, 330.14083433373713 92.99034882112377 M339.88159857527353 95.14482702850364 C337.09147796469216 94.20641405360901, 334.43766956363567 93.82167164971317, 330.3991557631071 92.42406593900145 " fill="none" stroke="#ffa110" stroke-width="1.5"/><path d="M19.43659198284149 150.53160374164582 L250.24421298503876 149.6050008058548 L248.59389941692353 188.1187543153763 L21.58955752849579 191.53145802021027 M17.987623561899426 151.94831644707656 C64.57431748512292 147.59468863887838, 113.00614769960619 147.48522919204763, 250.23948442741607 151.92074780189682 M19.692902958390118 150.27548044932283 C107.47560533209884 149.94769585009323, 196.45784239416207 150.3488827665628, 251.01604715643012 149.6233840385753 M247.86610081195832 147.75229403972625 C249.98126616477967 164.71405124664307, 248.66611342430113 173.79678013324738, 251.77923634052277 189.11739337444305 M249.61576837301254 149.95513368844985 C248.82489913225174 163.22636445760727, 250.35015738725662 174.59355469942093, 250.16849626302718 189.88311258554458 M251.86404626668764 188.1532592786653 C179.3862513507731 190.1304389400808, 108.00057242924329 192.4258384605352, 21.393554488161325 189.60297003534103 M249.66591015958488 190.82008132173647 C202.28643905840576 191.59598626238528, 155.23993166901863 190.77183434755602, 19.311255910115122 190.38058116709243 M20.70161259174347 188.7414160490036 C20.703111667633056 179.7597430706024, 20.62501947402954 168.35997927188873, 18.27592976093292 149.8054899930954 M19.786818635463714 190.72235246896744 C18.687479593753814 179.27554568052292, 20.314910700321196 166.45672961473466, 19.671065080165864 150.38248468637465 " fill="#1a1a1a" stroke="#58a6ff" stroke-width="1.5"/><text x="135" y="175" class="label-sm" text-anchor="middle">homeScreen.getText()</text><path d="M251.21685151904822 169.439675976336 C267.64551837295295 155.26828825185075, 285.6649048963562 140.65856489595024, 339.45031876415015 95.73706429153681 M250.3788104183972 170.75770645067095 C282.6261514313519 142.4476969943009, 317.5094974203035 113.42900221306829, 340.68233779743315 94.52781989499927 " fill="none" stroke="#ffa110" stroke-width="1.5"/>
  <path d="M335.21471093721107 104.10781662458379 C336.10831212808404 101.8122792787629, 337.53677239828335 100.19542224254906, 340.4261223259382 95.35079536261037 M335.5101501197589 103.75259739196684 C336.93830609989806 100.81055976497646, 338.52418384055085 97.526767283218, 339.7684134936426 95.08775162114762 M340.21283986000344 94.99288222612813 C338.08113431692567 95.92595617109421, 335.3497091233152 95.98798573895397, 330.3572609463616 97.92544929100376 M340.09799612523057 94.87096100463532 C336.8657499866999 95.96482939501082, 333.63634533686457 97.2067514566877, 330.20342968678125 97.83671808893968 " fill="none" stroke="#ffa110" stroke-width="1.5"/><path d="M341.8645187743008 62.1857542745769 L499.74458810165527 62.212255000323054 L502.16112059429287 131.05220711156727 L342.2894824631512 130.40797877237202 M339.6787044517696 59.542591369897124 C372.535191103071 61.19906914964319, 404.8642355851829 57.47055006757379, 502.10527541562914 58.14958783462644 M339.21859729923307 59.310231279954316 C400.4032163593918 58.46421862386167, 463.1051514748484 59.8067551805824, 499.429077572003 60.203478157147764 M501.1627188436687 59.2013027317822 C499.0150682510808 73.71920935902745, 497.8616854013875 88.5247266124934, 499.0299384586513 128.15933755710722 M500.42477449812 61.089798748120664 C500.8349562466517 87.17870383206755, 501.4423824966326 114.81893910095096, 500.74958010353146 130.58117756806314 M501.04092802926897 130.23690084293486 C448.2087496303022 127.93373176947237, 394.10982242152096 126.75151853457095, 341.9584398500621 129.85000234916805 M499.3153301302344 130.7007165428251 C467.33226076699793 127.35526373051106, 433.19905140437186 129.21743300817906, 339.88420960344376 130.28176783286034 M340.7559833757579 127.67353121116757 C339.7121452231333 106.90432194825262, 341.9530571122095 81.74093620218336, 340.2138997070491 60.352758968621494 M340.5706963244826 130.88227909766138 C340.7732768053934 116.59360488634556, 340.0558091039583 101.62801378965378, 339.604413825646 59.059777760133144 " fill="#1a1a1a" stroke="#3fb950" stroke-width="1.5"/><text x="420" y="90" class="label-bold" text-anchor="middle">Roku :8060</text><text x="420" y="110" class="label-sm" text-anchor="middle">GET /query/app-ui</text><path d="M499.39995325803756 96.54371873140335 C510.68640845716 93.65658528208732, 524.9671873867512 95.83052288889884, 561.0303560137748 93.71514092683792 M500.78798390030863 94.97085179686546 C521.0158842176199 94.47756831884384, 543.0307047009468 94.58214309453965, 559.7021068632603 94.60039643645287 " fill="none" stroke="#3fb950" stroke-width="1.5"/>
  <path d="M550.883972021603 98.46005335049281 C552.7781752823738 97.90130310698238, 554.5010855026404 97.58846391839666, 560.1298259496689 94.82841646671295 M550.9956019249195 98.94711634115825 C554.588724700754 97.29792491542351, 557.9693157735765 95.86991296507254, 559.8181369900703 94.7906476855278 M559.5472148656845 94.60878145694733 C558.2551045696358 93.77649905059769, 555.8031348368586 93.59361487725207, 551.2745588746303 90.68966898722996 M559.9041202664375 94.78938120603561 C557.184843048047 93.79274424697489, 554.1823602078624 92.40227794974213, 550.659744533562 90.98661128087392 " fill="none" stroke="#3fb950" stroke-width="1.5"/><path d="M562.1244556576014 67.39904807507992 L679.6496321827174 62.79509194791317 L682.0834177166223 124.05659907758236 L558.6940739780664 125.04499524533749 M560.449941572547 64.12964841425419 C586.0578126072884 62.105384603738784, 608.2085883051157 65.62280661225319, 678.4879450172186 65.3939261585474 M561.1849798753858 65.96356474608183 C584.2818543240428 63.28880475670099, 609.2123789802193 63.81952322632074, 679.4276335790753 65.10049554556608 M678.9933687537908 64.30311423838138 C678.5420381304622 86.5716240927577, 678.2259085413813 106.98262967467308, 678.8064057677984 123.41281739771367 M679.1378062322735 64.44463807791472 C680.0867688679696 78.38712487518788, 679.3827113175392 89.596620644629, 680.1066394403576 124.59242550581693 M681.2878304809332 125.06514512598514 C632.9044635355473 122.62510786533356, 584.7372434407473 124.77518978595734, 561.1734596580267 124.27115260660648 M681.0372100427746 125.76597477644682 C634.9310663565993 124.83871608525514, 589.9047642841936 123.7783487394452, 559.7873497083783 124.957773129642 M560.9035415977239 127.05646373331547 C558.7294482746721 109.46410677582026, 561.1286079922319 95.36912835836411, 559.9186965316534 66.80027944147587 M560.345740135014 124.62205726355315 C560.9364795714616 100.68023288846015, 559.112814477086 79.32016357928515, 558.9776257112622 65.1707083389163 " fill="#0f0f0f" stroke="#2e2e2e" stroke-width="1.5"/><text x="620" y="90" class="label-sm" text-anchor="middle">Parse →</text><text x="620" y="108" class="label-sm" text-anchor="middle">Find → Check</text>
</svg>