<svg xmlns="http://www.w3.org/2000/svg" viewBox="0 0 700 260" width="700" height="260" style="background:#0f0f0f">
  <style>
    text { font-family: 'Segoe UI', system-ui, -apple-system, sans-serif; }
    .label { fill: #ede9e3; font-size: 14px; }
    .label-sm { fill: #9a9590; font-size: 11px; }
    .label-bold { fill: #ede9e3; font-size: 15px; font-weight: 600; }
  </style>
  <text x="160" y="25" class="label-bold" text-anchor="middle">Before</text><path d="M37.7258882842958 42.35337124243379 L277.98324352130294 37.94801681414246 L281.5196354709566 85.72381854429841 L40.24495182856917 86.66971686258913 M39.2575666952493 40.65436237923378 C88.94018961625794 36.432961565219955, 137.37455129189152 36.870184235499224, 281.2914330972434 41.11102103572587 M39.119082517314716 39.63329089860479 C113.27516701102073 38.480193737873975, 186.87068851438937 38.721528429799235, 280.0640511205295 39.92789827850656 M281.6868833579123 40.346569784730676 C281.75747738162056 53.38178228111938, 278.93823516646404 61.55201293546706, 278.09309714213015 86.49214776381851 M278.9098023336381 39.86844704337418 C279.86641294239087 51.03017383506521, 279.1205227660946 61.961799995042384, 281.1278569024056 86.18053602166474 M281.21428630887414 86.01837726479563 C206.85132937770405 87.31470155096797, 132.73065574051432 86.42276201090483, 38.470282896534144 85.2491641996355 M280.8013063006947 84.31088403380772 C210.14445784633992 87.93305550292067, 140.34673178900124 87.77043848031498, 40.941146562761084 84.79397424042915 M38.44657845869661 85.38877974376082 C38.693237880375236 67.20703222630546, 39.24026611199603 52.00205091368407, 38.56254108324647 41.22062939032912 M39.13243090324104 84.17213034816086 C40.80350098358467 69.74784188354388, 39.91281786905601 53.80578188877553, 38.97313790731132 39.53992382474244 " fill="#0f0f0f" stroke="#2e2e2e" stroke-width="1.5"/><text x="160" y="68" class="label-sm" text-anchor="middle">Manual button pressing</text><path d="M158.4405184328556 84.06527237296105 C159.8481665737927 88.8727469202131, 159.08389483764768 94.55897512957453, 160.55219541192054 109.02472881674767 M160.44837076365948 85.10513260662556 C159.4800743125379 94.79788129664958, 159.25184183344246 102.9827472962439, 159.3942397326231 109.34613344967366 " fill="none" stroke="#2e2e2e" stroke-width="1.5"/>
  <path d="M155.6222771902611 100.85965696148658 C156.7411572294513 102.93380407272645, 157.71906714732813 104.85813805831745, 160.17432938609272 110.05379608180374 M156.31296719965016 100.65710018141279 C157.3627065792111 102.97297075519927, 158.17520418808814 105.59022081029993, 160.02890989137813 110.00936671392992 M160.26012931857258 109.70233681704849 C160.84639100269624 107.15774275151206, 162.62837884590238 102.97820737155809, 164.20395187725822 100.62244138293052 M159.88300737692043 110.14909132616594 C161.08691785902275 106.6676519340037, 162.63888193227834 103.6326628009166, 163.682872931655 100.62065816981801 " fill="none" stroke="#2e2e2e" stroke-width="1.5"/><path d="M39.19828336238861 107.93618586063386 L281.62767865657804 108.47643167972565 L281.43361203670503 155.28662378787993 L42.01686475276947 152.67848093509673 M38.67566862407508 108.79645992813668 C90.66483604757819 108.75163780007365, 135.91762346771216 108.9091235623463, 280.33420420695927 110.97783733214212 M40.55293260121968 109.61321267507313 C100.215265102757 110.03053304185396, 158.69957183136952 109.83340166795641, 279.5566331265378 109.43293590728672 M282.0549602746963 108.18741986751556 C279.38351257383823 125.62130377590657, 281.1679234319925 139.40750702023507, 279.31991159915924 153.6528030157089 M280.23224943876266 110.51265851259231 C280.66923320949076 123.05706644952298, 281.06665790736673 137.17160378098487, 280.6499141573906 154.20629140138627 M279.62060608503396 156.587649073379 C198.4453587532453 153.55102960340307, 115.6858814399625 155.94561386479683, 40.698475025242374 156.35566507474772 M279.87945214195605 155.81551236131426 C185.8442256749082 155.68184107318976, 94.21091694899798 155.1366392911379, 40.252546976893356 154.15354081906497 M39.27764856815338 153.57403333187102 C39.14420350015164 147.62847091853618, 38.15727646768094 138.52741534113883, 41.57858622074127 109.93546140193939 M39.1777290225029 154.35764523744584 C40.59579900085926 141.76396991312504, 39.673033269047735 129.7068302333355, 39.75982245206833 110.78958379030227 " fill="#0f0f0f" stroke="#2e2e2e" stroke-width="1.5"/><text x="160" y="138" class="label-sm" text-anchor="middle">Squint at console</text><path d="M160.71687489002943 154.46781661063432 C160.56180429365486 159.79975536959245, 159.25023341085762 165.99797373060136, 159.7351407572627 178.97949382811785 M160.38481846824288 154.57228055223823 C160.00729524511846 163.07646585432812, 159.97653550524265 170.48958899211138, 160.431284365803 179.32762167677282 " fill="none" stroke="#2e2e2e" stroke-width="1.5"/>
  <path d="M155.89656551909124 171.03157792178996 C156.51026148237986 172.2038719067595, 157.25658027314063 174.2561210075798, 159.8674230906181 180.38000722648576 M156.02402931317178 170.83638198356226 C157.37162430058956 174.12839014084724, 159.0557199502925 177.7134858840896, 159.7693735382054 179.93006271286868 M160.15740219084546 179.96115430118516 C161.09554586724877 177.38749265940197, 162.2245432914831 174.5472332281791, 163.94955216273243 170.4938215085686 M159.92804438085295 180.13030815287493 C160.94343485650035 178.0577689851937, 161.54073687596298 176.06238418775894, 163.88129175263035 170.99556547085837 " fill="none" stroke="#2e2e2e" stroke-width="1.5"/><path d="M40.80472703948617 178.57892303690315 L279.9939143516123 179.03966667875648 L282.15025025382636 224.53000245317816 L42.34841736331582 223.8545446179807 M41.47880209286957 181.93986330698263 C87.11262412574087 179.82386471156335, 135.32832119865276 177.30274889821575, 281.0709879637755 179.6039194068325 M39.50647870128311 180.33760723692765 C112.14907480167787 179.25157068506147, 185.8202720186124 179.6980737177984, 279.9839231298221 179.92422204136406 M280.96680374369026 178.18351167216898 C277.60141752695665 194.65194869739935, 278.04597693419083 206.60987317990512, 279.8300962232053 226.7747903443873 M280.1579259444028 180.84326226823032 C280.7182063059695 193.64351471001282, 279.2933522539027 208.159905991517, 279.60117384679614 226.06275869719684 M279.01830865909625 223.9954944347211 C201.1871114482677 225.7575602010869, 120.938587606093 227.10771682169013, 41.80233389343295 224.73072030204838 M280.5911000574024 225.06374927160655 C194.02551913893137 224.36314711629643, 109.2372294469122 225.1624715839867, 39.542049683986725 224.44911012309038 M39.40969844087958 223.3534396983683 C41.74675099486485 205.42138006137685, 38.83708829516545 187.91635670978576, 38.536887099593876 181.2771844960749 M41.06564004905522 225.31080794446171 C40.31484743444249 211.0951104789041, 39.144484806936234 199.44669931400568, 39.7465809751302 180.01025050990285 " fill="#0f0f0f" stroke="#2e2e2e" stroke-width="1.5"/><text x="160" y="208" class="label-sm" text-anchor="middle">Hope for the best</text><path d="M308.87836679816246 128.44371410012246 C325.8024493455887 131.78411607146265, 341.1764769613743 131.35693845152855, 389.52734045386313 130.2510484278202 M310.23486087620256 129.3693551748991 C333.5369441002607 130.02552541196349, 357.5916426807642 130.56314528882504, 389.45412557423117 130.49559371173382 " fill="none" stroke="#fa520f" stroke-width="1.5"/>
  <path d="M381.1658575565935 134.3567128807264 C382.4172778887522 133.50679694852326, 384.7666723466528 132.05960661150522, 389.82645629392937 129.87176426453516 M380.8407335566272 133.79611050705003 C383.3575217890821 132.63998392307548, 385.9190392471422 131.7340198557808, 389.99502058676444 130.13874370628037 M390.2568551157601 129.65329285664484 C388.0818514011892 129.30598589008372, 385.8835536799411 128.36766300427735, 380.6246676774145 125.79168818500315 M390.20285298279487 129.91633249097504 C387.56389173051235 129.18947697147075, 385.35879993880184 127.95901865855632, 380.99140466618434 126.0528730941513 " fill="none" stroke="#fa520f" stroke-width="1.5"/><text x="350" y="120" class="label-sm" text-anchor="middle">roku-mcp</text><text x="530" y="25" class="label-bold" text-anchor="middle">After</text><path d="M408.42520668655635 40.75196676105261 L660.5875227704644 41.9116530880332 L662.206212450564 83.48120117038488 L411.2616956487298 85.91065983623267 M410.3227678007949 38.94779217044815 C458.6910527443014 38.20071847094643, 510.06425448889127 38.80073121693212, 658.7444098813666 40.02494184463571 M410.1793976217719 40.76897175039506 C492.4263932718317 41.32926008035478, 574.9609559633665 41.112212100777, 660.8863826609698 39.52897807557774 M657.9443236336112 40.84611804634333 C659.6868420737609 54.33670366536826, 657.6900327342375 70.2656453024596, 661.6539444431662 84.15221607834101 M660.9111971028149 39.59534997865558 C661.2547018771246 55.731780155934395, 659.4767710213736 73.39828769527375, 660.3473019964993 85.61467301771044 M659.131934207597 85.71994291835483 C590.6756777687485 82.94515860478975, 523.810141771413 82.20437186600371, 408.8213901060581 84.92601433197721 M659.4900121061592 85.94959400986914 C589.1173110413322 86.55608588800446, 518.9641108930776 86.29139386394732, 410.8817667352894 85.14469195473872 M411.36957034915685 85.13032415062189 C408.23046489242466 75.74757693577558, 409.2614051866904 63.74273652024567, 410.2780650600791 41.67851507812738 M409.880483687669 85.42808747217059 C410.3669898591563 72.5765707274899, 409.39703477244825 58.322074704244734, 410.65770338848233 40.80026543065905 " fill="#1a1a1a" stroke="#fa520f" stroke-width="1.5"/><text x="535" y="68" class="label-sm" text-anchor="middle">"Test the browse flow"</text><path d="M534.356733596325 83.4874282002449 C536.0123649820686 91.48573486879468, 534.6021755442023 95.6808310881257, 535.6546809077263 108.90209685564041 M534.6697217524052 84.53871034979821 C535.3981730893255 94.09301850125193, 534.3209771588445 105.03906859606505, 534.7082511484623 110.19118742346764 " fill="none" stroke="#ffa110" stroke-width="1.5"/>
  <path d="M530.9128150989344 100.41504652969623 C531.9174410950002 102.45900388926616, 532.2833578211581 104.65651355180523, 535.4305431256071 109.7472161790356 M530.8663446715144 100.7410445393444 C531.9800849828059 103.18912664858962, 533.2336596512293 105.66962990288287, 534.8139384309761 110.12200164841488 M534.7282990822569 109.72499962057918 C536.8903889954614 106.35500188951181, 537.3352494329564 103.33011300003585, 538.8258620469788 100.84824396841312 M534.7901157657616 110.17812907742336 C536.1226941050828 107.29561605630438, 537.3951975141175 104.77988368795822, 538.9579467803197 100.71040706647644 " fill="none" stroke="#ffa110" stroke-width="1.5"/><path d="M409.78961817100645 111.45873265191912 L658.4838407881558 109.07868506833911 L659.2069337971509 152.90132226869463 L408.7272321589291 157.2235436670482 M410.34675712996994 110.58295677873814 C459.9873353605809 109.94076278586942, 510.80954009896016 107.26059585957638, 659.6266536236799 111.63610224922425 M409.51389709917436 109.50826944467738 C476.2395853198479 109.94285308121671, 542.7048471560831 110.07512123242819, 660.0867540890828 109.35417491464482 M660.2854774944484 109.48413451984524 C660.5860932919197 121.91115351086482, 659.0474267813378 137.1361591046676, 661.9913773767651 155.97735382393003 M660.2254871908575 110.49218988381327 C660.8214545872248 121.00236405553296, 658.775789025072 131.24207886140795, 659.8625017348677 153.82124379836023 M658.8562977063325 154.41821117367536 C594.4909441462511 156.24193421686797, 533.2796992266528 157.1322818892047, 411.5659560671902 155.00905053692577 M660.944673023149 155.77555482534825 C562.6921486363333 155.71647326166442, 464.3978109463782 156.3266229545034, 410.496439075797 154.64922459676072 M411.0304067604244 156.1647324450314 C410.3782117796131 144.43088665390388, 411.78838102342564 134.78355285618454, 408.04062640592457 108.27724038437009 M408.974788076058 154.99521939717232 C409.85162781884895 140.87227199180052, 409.75653217246753 124.55296190027147, 408.82210611738265 110.2843921776861 " fill="#1a1a1a" stroke="#ffa110" stroke-width="1.5"/><text x="535" y="138" class="label-sm" text-anchor="middle">Agent navigates + verifies</text><path d="M536.1776837006212 154.96991268247365 C535.533781269379 159.96443247189745, 536.5149667533115 164.60950005184858, 536.2098631992936 181.30649310201406 M534.8653853468597 154.61607826426626 C535.4316829210147 162.4972265430726, 534.2678926235064 170.47659946177154, 535.3879060558975 179.8132242269814 " fill="none" stroke="#3fb950" stroke-width="1.5"/>
  <path d="M530.9208343721037 170.51338168684475 C531.7154482982103 172.82272531795576, 533.1014263431358 174.62438954342096, 534.6564984675497 179.83752709068358 M531.2300847184887 170.8368520344057 C532.4803291659493 174.01704941505344, 534.0653890755807 177.34751813485596, 535.2190483780578 180.18425722699612 M534.919131314382 180.38767653144896 C535.3508509483756 178.48390428530786, 536.2205804775282 175.86415362755582, 539.2972877041394 171.03614076677792 M535.08568346221 180.02640433888882 C536.1117270925118 177.6438407078526, 536.9228681967996 174.70419434113572, 539.0152570537249 170.63461460717105 " fill="none" stroke="#3fb950" stroke-width="1.5"/><path d="M409.99069106951356 181.84861648902296 L657.7665416277945 181.53091526851057 L658.0109262742102 224.82218240126969 L408.9666916884482 222.97449308261275 M411.4028983508836 180.095172303484 C460.03412849560095 183.34485559937477, 512.0130863972992 183.0181308752025, 660.156924638216 181.77214892076213 M409.7877021937688 180.60264181259635 C494.4158726955685 178.39311077350516, 577.0552538670834 178.15614120143488, 659.5008499473046 180.80395673781615 M658.1011273227632 180.31699710264803 C659.6138979332708 189.19783865092322, 661.1599746363424 200.1564672170207, 658.5164326272904 222.91935193911195 M659.3303312916308 180.02177831344306 C659.990683831293 194.5416975245811, 659.4966278329678 208.7098264982924, 660.2063053864986 225.96731167249382 M658.3537053215191 223.69076865016262 C563.7724474967367 225.98288032464018, 465.96593084719706 228.34643105704444, 411.8731117410261 226.8735998715454 M660.4060329089889 225.39854980289152 C560.3534662299262 227.69407373370194, 460.9928269622291 226.92322731657094, 409.48428872370783 224.06522370074163 M412.3818764053285 226.155961612612 C409.3455845920183 210.48809232981876, 410.17258323112503 192.27891826797276, 408.5540100179613 182.21757700815797 M409.33870743699373 226.14669112376868 C411.0617534433119 211.34479079609736, 409.4433863793127 197.9111930044368, 408.82221708483996 180.84090230874716 " fill="#1a1a1a" stroke="#3fb950" stroke-width="1.5"/><text x="535" y="208" class="label" text-anchor="middle">Pass/fail report</text>
</svg>