<svg xmlns="http://www.w3.org/2000/svg" viewBox="0 0 500 340" width="500" height="340" style="background:#0f0f0f">
  <style>
    text { font-family: 'Segoe UI', system-ui, -apple-system, sans-serif; }
    .label { fill: #ede9e3; font-size: 14px; }
    .label-sm { fill: #9a9590; font-size: 11px; }
    .label-bold { fill: #ede9e3; font-size: 15px; font-weight: 600; }
  </style>
  <path d="M79.32860838919878 0.8555550143122673 L419.296095867455 1.043617920577526 L420.480644197762 47.97607017010451 L82.0831811144948 52.0355777785182 M78.90680295027141 1.1493277510761826 C150.10278821747536 2.1659723257917674, 216.04854238799047 2.8260676571406633, 418.4739794924323 -0.2716232004825979 M79.66874260649669 -0.7969985979789778 C208.15945812120358 -3.0597454530508124, 334.4377959352071 -2.1091881596256816, 420.55005653081037 -0.04211005193210095 M419.8391777560115 -1.4505395695567131 C418.4094419058412 17.83248987607658, 417.7487789209932 37.978820408135654, 420.88985481709244 48.98187586814165 M420.0076113559306 0.20776212438941002 C419.7678988125175 18.850390910729764, 419.88210748694837 34.38821241557598, 420.16163874641063 50.06392798647285 M419.3120684973816 50.23339390638605 C332.79016502441345 47.61017311489589, 246.66237882057675 48.11278998433683, 81.55084947731713 48.87122197535339 M420.06299214139347 49.297444403292175 C345.3834735284334 50.025295018830015, 271.1174754865473 48.79922508476186, 79.69614445888035 50.406365013734195 M79.5313788935542 51.590570755302906 C77.62436254359783 39.49523187763989, 79.45945456363262 26.222666742652656, 77.82244596928358 -2.310616712272167 M78.83582490459085 50.10396950468421 C80.7778385926038 32.257590036466716, 80.91221175678074 12.591510708630086, 79.44878326430917 1.0169514678418636 " fill="#1a1a1a" stroke="#bc8cff" stroke-width="1.5"/><text x="250" y="25" class="label-bold" text-anchor="middle">Your Tests (vitest)</text><path d="M250.7378094136715 48.7982073366642 C251.1999552422762 52.53853652626276, 249.76017729580403 57.86583471000195, 251.167108386755 71.48893705010414 M250.57647669613362 49.90659906566143 C250.1996332871914 56.918596531450746, 249.67762009978296 63.82045910954476, 249.67830822765828 69.61645729243756 " fill="none" stroke="#bc8cff" stroke-width="1.5"/>
  <path d="M246.1997654380319 60.79486510654994 C247.1854761689446 62.89666307594679, 248.08831963972466 64.4391740057038, 249.79619789635763 70.26865507895127 M245.9675226486796 60.70318028106437 C247.51163683143946 63.96064356970224, 248.94007306526657 67.29673641451566, 250.1151019942481 70.08836435037665 M249.97951758420095 70.29330696398392 C251.33006417136792 67.21729390732564, 252.54226557874472 64.52315850108707, 253.5789765279698 60.437355880943024 M250.09131229040213 70.23557000118308 C251.37428546616593 67.17544071440054, 252.154443019177 64.7169439556437, 253.8784344540401 60.57090522124515 " fill="none" stroke="#bc8cff" stroke-width="1.5"/><path d="M77.8189775891602 68.26720635220408 L421.1178272433579 71.83886412903666 L422.2103727288544 117.70199453160167 L80.97803494408727 117.9247860364616 M80.75329100572034 69.74657872666226 C148.9535417674129 69.33741470050589, 217.62563133615043 69.15446554267628, 419.75213323617714 69.22180190595661 M79.428390455942 69.58692757590805 C205.05488639331463 68.60167875356301, 330.4685937015178 67.52934848486848, 419.3261452764554 69.77915657897977 M421.47561013028024 71.97659875825047 C418.1984801089391 81.54897938352079, 419.1184708630666 99.07850798852742, 418.52877086922524 118.29862837269903 M420.80648941732943 69.65066390894353 C419.9997997423634 86.14031912144273, 419.39446954932066 103.51777607649565, 419.0648030374199 121.10741929672659 M418.41124984720716 118.7028497376977 C287.2862610188985 119.10974662183273, 157.08474089265428 118.30115884260722, 79.48489507315041 120.90397364342944 M420.52634693057746 119.3951291041008 C313.3155595926689 121.39098266622537, 205.94349384604985 121.15377557871219, 80.16299101181932 119.46634113040403 M78.62781440541148 118.42916361764074 C79.31299249622971 108.05945047903806, 81.190034336783 92.47955133579671, 78.62244090363383 68.24485930874944 M80.94535653330385 119.70521911047399 C80.66977597940712 109.49916462171822, 81.56276350487023 100.89231324270368, 81.15096705891192 70.73090073727072 " fill="#1a1a1a" stroke="#58a6ff" stroke-width="1.5"/><text x="250" y="95" class="label-bold" text-anchor="middle">uncle-jesse-test</text><text x="250" y="112" class="label-sm" text-anchor="middle">focusPath, assertions, replay</text><path d="M249.85806083977224 119.65479664504528 C249.04377742141486 122.90297370478511, 249.16207261413336 128.41096216589213, 251.08159876167775 138.6538249462843 M250.39865939468146 120.48764066845179 C249.7026494294405 127.24166608378292, 250.46419046223164 135.06883755624295, 249.85911257117988 139.22292342334987 " fill="none" stroke="#58a6ff" stroke-width="1.5"/>
  <path d="M245.75361793330362 130.80866436738603 C247.31863440820854 132.8237360433532, 247.24517807131403 134.04586310023072, 249.9626190830022 139.58575559966266 M246.26052848557433 130.88793302685104 C247.02807702114785 133.6838704957679, 248.22752328276255 136.10622885784855, 249.95465425308794 140.11545080784708 M249.50487400777638 139.77322937361896 C250.6412638071776 137.44227302435348, 252.04713774055696 135.23892099328566, 253.40664134705017 130.6458377100908 M249.95478609856218 139.97976369503886 C250.98914907924993 137.9855893957252, 251.79860233977243 135.87240984607675, 253.82613411796788 130.98138267904602 " fill="none" stroke="#58a6ff" stroke-width="1.5"/><path d="M81.1465825110674 137.88439173400403 L422.27339210808276 141.31044926345348 L422.29639616310595 188.13918928802013 L79.20612201988698 191.91602196395397 M81.21879577590246 141.2328569880312 C147.63175257620736 136.97767440638893, 218.90691410454573 137.01850819530512, 420.51789383353434 139.32834573622512 M79.88123691424008 139.60298968247582 C156.02978542472457 142.3536925446614, 232.45950100883883 141.63212481551548, 419.73206773672877 140.17511483400293 M421.1075332134962 139.3357486754656 C419.42225724086165 158.92296113297343, 420.5385949216783 180.45002039223908, 422.10195641219616 191.1379731208086 M419.48404231220485 139.0064524397254 C419.1002028487623 153.86557983979583, 419.7515577815473 170.21227895617486, 419.54274578243496 190.68166391700507 M419.6861565415111 191.4472312806074 C302.6120240452097 192.97297245661082, 181.5229567101449 192.73502853816618, 80.90217937923327 190.0187989692188 M419.66391577474326 189.7913546322845 C345.305402371217 188.5185697107355, 271.1513033715938 188.58742143204736, 80.71385448404226 189.9786728039349 M77.79674429595471 190.24391002953053 C78.85369199290871 181.67595859840512, 77.46468909755349 169.23008053153754, 80.40639576613903 139.53002729713916 M80.900058414042 189.51970422118902 C79.76602492406964 177.24471001699567, 80.69109506681562 164.5146117478609, 80.36428251415491 139.48124077171087 " fill="#1a1a1a" stroke="#58a6ff" stroke-width="1.5"/><text x="250" y="165" class="label-bold" text-anchor="middle">uncle-jesse-core</text><text x="250" y="182" class="label-sm" text-anchor="middle">TVDevice, LiveElement, BasePage</text><path d="M251.18983923047782 191.12949439436198 C250.1953670425713 192.81530979312956, 249.3472710056603 199.2152990810573, 251.2155218228698 209.25391174703836 M250.07989657595755 190.68761804625393 C250.1427063164115 198.18473427928984, 250.19044627517462 206.60771034508943, 249.4861779756844 210.4970642618835 " fill="none" stroke="#58a6ff" stroke-width="1.5"/>
  <path d="M246.49156954773193 200.47104443641462 C247.0577061662951 202.62693947748198, 247.82540823253015 204.06433469938594, 249.7196677424945 210.0815979517065 M246.20991170690817 200.56541003295303 C246.8602815253312 203.26734822263617, 248.12070282885384 205.5344076628772, 249.80620052549057 210.1055659551639 M249.58308191085234 209.94691875344142 C250.53972526066303 207.93823221956566, 251.42318139582878 205.85052765365748, 253.8016381172421 200.5349316451148 M250.12403663131408 209.87223016214557 C251.08585039493119 207.11920991810553, 252.11642990888362 204.32909645508158, 253.92571518797936 200.8592132032764 " fill="none" stroke="#58a6ff" stroke-width="1.5"/><path d="M81.84590091332794 211.08298725262284 L420.07767135724424 210.47408553734422 L418.1829731427133 260.6965719141066 L80.2228658400476 261.15696493759754 M78.87641616168095 209.85046050129213 C148.5993429028747 208.68307923897385, 217.03662428173172 208.86393827348442, 418.45983388131134 208.4599151795797 M80.73239326438296 210.52406342996534 C164.22987677299517 210.18183578607565, 248.69170682938952 210.6899215397558, 420.4043864918896 209.8482972040185 M422.1649734891951 209.83529693707823 C418.4888695316389 225.1335904384032, 420.42764008808876 240.0750686015934, 420.86280371323227 258.79804143533113 M419.08543708138166 211.1333553750068 C420.5836806686595 221.54168830979614, 420.2029949219897 230.39777095466852, 421.1621908765286 260.11580091305075 M421.2059356524882 261.2202460579199 C312.4443772946659 263.61577442759585, 203.97236099862798 263.48665362179577, 81.16381253460332 259.7590786371504 M420.20647697458617 259.51789624952363 C350.16516597851796 262.5142168397416, 279.82017125957765 262.4970890668242, 80.68074951462489 260.2616012578465 M80.71973618641496 259.9854544363916 C78.41838160734623 246.0699438592419, 77.51329077463598 232.27764724083244, 82.12191974297166 209.98791298493742 M79.24811119847 260.7756613451987 C79.29141999986022 240.3650980880484, 80.13721817042678 222.01422301754354, 79.64884799532592 210.74158237762748 " fill="#1a1a1a" stroke="#3fb950" stroke-width="1.5"/><text x="250" y="235" class="label-bold" text-anchor="middle">uncle-jesse-roku</text><text x="250" y="252" class="label-sm" text-anchor="middle">RokuAdapter + roku-ecp</text><path d="M248.41958390921354 259.73488164693117 C249.19568687811494 264.11726465709506, 248.55962220564484 268.6577119372785, 249.12022778242826 279.7152855947614 M250.25671253576874 259.7708140932024 C249.3123806616664 266.0334723997861, 249.57540163010358 273.00732073932886, 250.14721587076784 280.65729783400894 " fill="none" stroke="#3fb950" stroke-width="1.5"/>
  <path d="M245.75404000031253 271.1822609546044 C247.12517701940882 272.91805612783895, 247.21067127823892 274.0140860564494, 250.18503778520972 279.95892985817045 M245.99019901436245 270.81402815817006 C246.70958892284116 272.6000127529472, 247.7797256262998 274.59756825110424, 249.92334425030276 279.7503063646145 M249.88333886209875 279.6502123689279 C251.59206170109323 277.3491060311753, 252.59367524051174 274.682308120723, 254.27355848690073 270.60309543632053 M249.99665808258578 280.1823044982739 C251.52311122909694 276.5294430975228, 253.02841648775168 273.07122439953446, 253.75020307972605 270.71423570750363 " fill="none" stroke="#3fb950" stroke-width="1.5"/><path d="M82.20637424588203 281.49122297167776 L422.0240658581257 279.6830375850201 L422.30726650357246 329.66139394640925 L79.14718711972236 328.66945611834524 M79.82160620338742 279.37609331392923 C148.57724369394396 278.04211771792166, 216.57825645477635 277.6142720111151, 421.0645515612156 278.41167543608765 M79.75514211396553 280.47298963006017 C182.62676277164567 281.48010657668016, 285.96817006674644 281.2963113280052, 419.36433940393266 280.3713784346212 M421.30344831347463 280.3535397350788 C422.2593575701118 297.14104034155605, 421.77775299400093 311.06651091873647, 421.30179864764216 332.32252033352853 M419.750890865922 279.25298891961575 C421.44378868192433 297.97627096027134, 419.3274239167571 315.6223160624504, 420.6911520391703 330.20008278787134 M421.1653920487129 329.2089498196902 C302.5642520745039 329.7082038952254, 181.03753908385198 327.6020770860995, 80.76589374670216 330.1342246598906 M420.3345264340945 330.2074697776497 C326.10004028557466 331.5594952950031, 234.01452513658475 330.63037645119874, 79.40312273972332 330.60720438432253 M79.14302923083305 329.5640015423298 C81.689238370955 312.04809450656177, 80.6508100643754 295.43304806649684, 82.08340837359428 278.60560176968573 M80.40511468946934 330.0911753743887 C78.97757989913225 313.21935178786515, 80.3555449679494 295.0482209503651, 80.22211536467076 280.93076802194116 " fill="#1a1a1a" stroke="#d29922" stroke-width="1.5"/><text x="250" y="305" class="label-bold" text-anchor="middle">Roku ECP (:8060)</text><text x="250" y="322" class="label-sm" text-anchor="middle">HTTP API on the device</text>
</svg>